# xmcd CD database file
#
# Track frame offsets:
#	150
#	12036
#	28220
#	48337
#	68802
#	87351
#	102242
#	120524
#	133292
#	147109
#	153212
#	166559
#	180040
#	193853
#	204301
#	220242
#
# Disc length: 3120 seconds
#
# Revision: 0
# Processed by: cddbd v1.5.2PL0 Copyright (c) Steve Scherf et al.
# Submitted via: CDex 1.70beta2
#
DISCID=cf0c2e10
DTITLE=Bernd Schlott - Quelque Part À La Mer
DYEAR=2012
DGENRE=Jazz
TTITLE0=Harp Goes Beat
TTITLE1=Klarnette Solo Nr. 13
TTITLE2=Train Go West
TTITLE3=Altsaxofon Solo Nr. 3
TTITLE4=Celtic Mind
TTITLE5=Mundharmonika Solo Nr. 3
TTITLE6=Last Dance of the T.Rex
TTITLE7=Klarinette Solo Nr. 15
TTITLE8=Quelque Part á la Mer
TTITLE9=Schlammpeitzger
TTITLE10=Ile Blue
TTITLE11=Yellow African Sun
TTITLE12=Slow Circles
TTITLE13=swinging Wheat
TTITLE14=Second Blue Ballad
TTITLE15=Klarinette Solo Nr. 14
EXTD=YEAR: 2012
EXTT0=
EXTT1=
EXTT2=
EXTT3=
EXTT4=
EXTT5=
EXTT6=
EXTT7=
EXTT8=
EXTT9=
EXTT10=
EXTT11=
EXTT12=
EXTT13=
EXTT14=
EXTT15=
PLAYORDER=
